<svg xmlns="http://www.w3.org/2000/svg" xmlns:xlink="http://www.w3.org/1999/xlink" version="1.1" x="0px" y="0px" viewBox="0 0 60 60" enable-background="new 0 0 60 60" xml:space="preserve" author="Created by AS Design from the Noun Project"><path d="M44.639,33.457l-5.656-10.373c4.966,0.103,10.48-0.382,12.47-1.942c3.688-2.89,0.299-4.884-1.096-4.884  c-3.583,0.261-11.178,1.606-16.01,2.508l-2.619-1.565c0.033-0.133,0.07-0.265,0.093-0.401c2.751-0.782,7.705-3.025,7.759-9.088  c3.9-3.255,8.869-7.386,8.869-7.386L48.179,0c0,0-5.034,4.187-8.946,7.451l-0.076,0.063v0.1c0,5.832-4.604,7.99-7.293,8.757  c0.01-0.121,0.03-0.239,0.03-0.361c0-2.018-0.45-1.645-0.736-1.645c-0.129,0-0.38-0.005-0.616-0.011v-0.351  c0.504-0.053,1.178-0.258,1.178-0.983c0-0.382-0.65-0.866-1.178-1.117L30,5.582l-0.542,6.32c-0.527,0.252-1.178,0.735-1.178,1.117  c0,0.726,0.674,0.931,1.178,0.983v0.351c-0.235,0.006-0.486,0.011-0.616,0.011c-0.286,0-0.736-0.373-0.736,1.645  c0,0.122,0.021,0.24,0.03,0.361c-2.69-0.767-7.293-2.925-7.293-8.757v-0.1l-0.076-0.063C16.855,4.187,11.821,0,11.821,0l-0.27,0.327  c0,0,4.968,4.131,8.869,7.386c0.054,6.063,5.007,8.306,7.759,9.088c0.023,0.137,0.06,0.268,0.093,0.401l-2.618,1.565  c-4.833-0.902-12.428-2.248-16.011-2.508c-1.396,0-4.784,1.994-1.096,4.884c1.99,1.559,7.504,2.044,12.469,1.942l-5.655,10.373  L6.43,39.845l0.247,0.344l8.97-6.416l5.855-10.7c2.681-0.077,5.155-0.322,6.775-0.66l-5.059,7.883l-0.049,0.077l2.796,11.479  l-8.142,17.973L18.208,60l8.173-18.039l0.03-0.067l-2.786-11.444l5.245-8.174c0.045-0.011,0.09-0.023,0.133-0.035  c-0.214,1.402-0.347,3.244-0.347,5.28c0,4.376,0.601,7.924,1.345,7.924s1.346-3.547,1.346-7.924c0-2.036-0.133-3.878-0.348-5.28  c0.043,0.012,0.089,0.024,0.133,0.035l5.245,8.174l-2.77,11.373l-0.017,0.071L41.792,60l0.385-0.175l-8.143-17.973l2.796-11.479  l-5.108-7.96c1.619,0.336,4.092,0.582,6.772,0.66l5.796,10.629l9.032,6.487l0.247-0.344L44.639,33.457z M33.717,18.885  c-1.262,0.237-2.285,0.434-2.937,0.561c0.259-0.429,0.594-1.071,0.833-1.819L33.717,18.885z M28.387,17.627  c0.239,0.748,0.576,1.39,0.835,1.819c-0.652-0.127-1.676-0.324-2.938-0.561L28.387,17.627z"/></svg>