<?xml version="1.0" encoding="UTF-8"?>
<!DOCTYPE svg PUBLIC "-//W3C//DTD SVG 1.1//EN" "http://www.w3.org/Graphics/SVG/1.1/DTD/svg11.dtd">
<!-- Creator: CorelDRAW X6 -->
<svg xmlns="http://www.w3.org/2000/svg" xml:space="preserve" width="4200px" height="900px" version="1.1" style="shape-rendering:geometricPrecision; text-rendering:geometricPrecision; image-rendering:optimizeQuality; fill-rule:evenodd; clip-rule:evenodd"
viewBox="0 0 4200 900"
 xmlns:xlink="http://www.w3.org/1999/xlink">
 <defs>
  <style type="text/css">
   <![CDATA[
    .fil0 {fill:black}
    .fil1 {fill:black;fill-rule:nonzero}
   ]]>
  </style>
 </defs>
 <g id="Слой_x0020_1">
  <metadata id="CorelCorpID_0Corel-Layer"/>
  <path class="fil0" d="M654 511l-77 -143c68,2 144,-5 171,-27 51,-39 4,-67 -15,-67 -49,4 -154,22 -220,35l-36 -22c0,-2 1,-3 1,-5 38,-11 106,-42 107,-126 54,-44 122,-101 122,-101l-4 -5c0,0 -69,58 -123,103l-1 1 0 1c0,80 -64,110 -101,121 1,-2 1,-4 1,-5 0,-28 -6,-23 -10,-23 -2,0 -6,0 -9,0l0 -5c7,-1 16,-3 16,-13 0,-6 -8,-12 -16,-16l-7 -87 -8 87c-7,4 -16,10 -16,16 0,10 9,12 16,13l0 5c-3,0 -6,0 -8,0 -4,0 -10,-5 -10,23 0,1 0,3 0,5 -37,-11 -100,-41 -100,-121l0 -1 -1 -1c-54,-45 -124,-103 -124,-103l-3 5c0,0 68,57 122,101 0,84 69,115 107,126 0,2 0,3 1,5l-36 22c-67,-13 -171,-31 -221,-35 -19,0 -66,28 -15,67 28,22 104,29 172,27l-78 143 -123 88 3 5 124 -88 81 -148c37,-1 71,-4 93,-9l-70 109 0 1 38 158 -112 247 5 3 113 -249 0 -1 -38 -157 72 -113c1,0 1,0 2,0 -3,19 -5,44 -5,72 0,61 8,110 19,110 10,0 18,-49 18,-110 0,-28 -2,-53 -5,-72 1,0 2,0 2,0l73 113 -39 156 0 1 113 250 6 -2 -113 -248 39 -158 -71 -110c23,5 57,8 94,9l80 147 124 89 4 -5 -124 -88zm-150 -201c-17,4 -32,6 -41,8 4,-6 9,-15 12,-25l29 17zm-73 -17c3,10 7,19 11,25 -9,-2 -23,-4 -40,-8l29 -17z"/>
  <path class="fil1" d="M1033 501l0 190 -86 0 0 -525 159 0c60,0 107,14 140,42 33,28 50,68 50,119 0,51 -17,92 -52,125 -35,32 -82,49 -141,49l-70 0zm0 -263l0 192 57 0c37,0 65,-9 85,-26 20,-18 29,-42 29,-74 0,-61 -36,-92 -107,-92l-64 0z"/>
  <path id="1" class="fil1" d="M1626 527l-255 0c1,34 11,61 32,80 20,19 48,28 84,28 40,0 77,-12 110,-36l0 69c-34,21 -79,32 -135,32 -56,0 -99,-17 -130,-51 -32,-34 -47,-82 -47,-144 0,-58 17,-106 52,-143 34,-36 77,-55 128,-55 52,0 91,17 119,50 28,33 42,78 42,137l0 33zm-82 -60c0,-31 -7,-55 -21,-72 -14,-17 -34,-25 -59,-25 -24,0 -45,9 -62,27 -17,17 -27,41 -31,70l173 0z"/>
  <path id="2" class="fil1" d="M1643 679l0 -78c31,24 66,36 105,36 51,0 77,-15 77,-46 0,-8 -3,-15 -7,-21 -4,-6 -10,-12 -18,-16 -7,-5 -16,-9 -26,-13 -10,-3 -21,-8 -34,-12 -15,-6 -29,-13 -41,-20 -13,-6 -23,-14 -31,-23 -8,-9 -15,-18 -19,-29 -4,-11 -6,-24 -6,-39 0,-18 4,-34 13,-48 8,-13 20,-25 34,-34 15,-10 31,-17 49,-22 19,-4 38,-7 57,-7 35,0 66,6 93,16l0 74c-26,-18 -57,-27 -91,-27 -10,0 -20,1 -29,4 -8,2 -16,5 -22,9 -6,4 -11,8 -14,14 -4,5 -5,11 -5,18 0,8 1,15 5,20 3,6 8,11 15,15 7,5 15,8 24,12 10,4 20,7 33,12 16,6 30,13 43,20 13,7 24,14 33,23 9,9 16,19 21,30 4,11 7,25 7,40 0,19 -4,36 -13,50 -9,14 -21,26 -35,35 -15,10 -32,17 -51,21 -19,5 -40,7 -61,7 -41,0 -76,-7 -106,-21z"/>
  <polygon id="3" class="fil1" points="2289,691 2181,691 2035,511 2034,511 2034,691 1948,691 1948,136 2034,136 2034,488 2035,488 2173,316 2275,316 2120,497 "/>
  <path id="4" class="fil1" d="M2667 316l-169 435c-36,78 -85,117 -148,117 -18,0 -33,-2 -45,-5l0 -71c13,5 26,7 37,7 31,0 55,-16 71,-47l25 -62 -149 -374 94 0 89 273c1,3 4,12 7,27l2 0c1,-6 3,-15 6,-27l94 -273 86 0z"/>
  <path id="5" class="fil1" d="M3099 669c-40,21 -89,31 -148,31 -76,0 -137,-24 -183,-72 -46,-48 -69,-112 -69,-190 0,-84 26,-151 78,-203 52,-52 117,-78 196,-78 50,0 93,7 126,22l0 86c-35,-21 -74,-31 -117,-31 -57,0 -103,18 -138,54 -36,37 -53,85 -53,146 0,58 16,104 49,138 33,35 76,52 130,52 50,0 93,-12 129,-35l0 80z"/>
  <path id="6" class="fil1" d="M3701 691l-87 0 0 -340c0,-28 2,-62 5,-102l-1 0c-5,23 -10,39 -14,49l-157 393 -60 0 -157 -390c-5,-11 -9,-29 -14,-52l-2 0c2,21 3,55 3,103l0 339 -80 0 0 -525 122 0 138 350c11,27 18,47 21,60l2 0c9,-28 16,-48 22,-62l140 -348 119 0 0 525z"/>
  <polygon id="7" class="fil1" points="4041,240 3845,240 3845,398 4026,398 4026,471 3845,471 3845,691 3758,691 3758,166 4041,166 "/>
 </g>
</svg>
